<?xml version="1.0" encoding="UTF-8" standalone="no"?>
<svg
   width="24"
   height="24"
   fill-rule="evenodd"
   clip-rule="evenodd"
   version="1.1"
   id="svg4"
   sodipodi:docname="plus.svg"
   inkscape:version="1.1 (c68e22c387, 2021-05-23)"
   xmlns:inkscape="http://www.inkscape.org/namespaces/inkscape"
   xmlns:sodipodi="http://sodipodi.sourceforge.net/DTD/sodipodi-0.dtd"
   xmlns="http://www.w3.org/2000/svg"
   xmlns:svg="http://www.w3.org/2000/svg">
  <defs
     id="defs8">
    <linearGradient
       id="linearGradient3639"
       inkscape:swatch="solid">
      <stop
         style="stop-color:#000000;stop-opacity:1;"
         offset="0"
         id="stop3637" />
    </linearGradient>
    <linearGradient
       id="linearGradient1061"
       inkscape:swatch="solid">
      <stop
         style="stop-color:#000000;stop-opacity:1;"
         offset="0"
         id="stop1059" />
    </linearGradient>
  </defs>
  <sodipodi:namedview
     id="namedview6"
     pagecolor="#505050"
     bordercolor="#ffffff"
     borderopacity="1"
     inkscape:pageshadow="0"
     inkscape:pageopacity="0"
     inkscape:pagecheckerboard="1"
     showgrid="false"
     inkscape:zoom="31.375"
     inkscape:cx="12.015936"
     inkscape:cy="12"
     inkscape:window-width="1920"
     inkscape:window-height="1177"
     inkscape:window-x="-8"
     inkscape:window-y="-8"
     inkscape:window-maximized="1"
     inkscape:current-layer="svg4" />
  <path
     style="color:#000000;opacity:1;mix-blend-mode:normal;fill:#666666;fill-opacity:1;stroke:#000000;stroke-opacity:1;stroke-linejoin:miter;stroke-linecap:butt;paint-order:stroke fill markers;stroke-width:1;stroke-miterlimit:4;stroke-dasharray:none"
     d="m 12.137451,0.50996016 c 6.347,0 11.5,5.15299994 11.5,11.50000084 0,6.347 -5.153,11.5 -11.5,11.5 -6.3470009,0 -11.5000008,-5.153 -11.5000008,-11.5 0,-6.3470009 5.1529999,-11.50000084 11.5000008,-11.50000084 z m 0,0.99999994 c 5.795,0 10.5,4.705 10.5,10.5000009 0,5.795 -4.705,10.5 -10.5,10.5 -5.7950009,0 -10.5000009,-4.705 -10.5000009,-10.5 0,-5.7950009 4.705,-10.5000009 10.5000009,-10.5000009 z m 0.5,10.0000009 h 6 v 1 h -6 v 6 h -1 v -6 H 5.6374501 v -1 H 11.637451 V 5.5099601 h 1 z"
     id="path2"
     inkscape:export-filename="E:\Workspace\Home\Programming\Projects\pallet\src\res\img\plus.png"
     inkscape:export-xdpi="279.99997"
     inkscape:export-ydpi="279.99997" />
</svg>
